<svg width="1024" height="1024" viewBox="0 0 1024 1024" xmlns="http://www.w3.org/2000/svg">
<defs>
  <linearGradient id="bg3" x1="0" y1="0" x2="1" y2="1">
    <stop offset="0" stop-color="#222b40"/>
    <stop offset="0.55" stop-color="#171a22"/>
    <stop offset="1" stop-color="#0f1014"/>
  </linearGradient>
  <linearGradient id="owl3" x1="0.2" y1="0" x2="0.8" y2="1">
    <stop offset="0" stop-color="#bcd0fb"/>
    <stop offset="0.5" stop-color="#6f99f0"/>
    <stop offset="1" stop-color="#4a72d6"/>
  </linearGradient>
  <filter id="bodyshadow" x="-20%" y="-20%" width="140%" height="140%">
    <feDropShadow dx="0" dy="18" stdDeviation="22" flood-color="#000" flood-opacity="0.5"/>
  </filter>
  <filter id="owlshadow" x="-40%" y="-40%" width="180%" height="180%">
    <feDropShadow dx="0" dy="10" stdDeviation="14" flood-color="#000" flood-opacity="0.45"/>
  </filter>
  <clipPath id="bodyclip">
    <rect x="100" y="100" width="824" height="824" rx="185" ry="185"/>
  </clipPath>
</defs>
<rect x="100" y="100" width="824" height="824" rx="185" ry="185" fill="url(#bg3)" filter="url(#bodyshadow)"/>
<g clip-path="url(#bodyclip)">
  <g transform="translate(100,100) scale(0.8046875)">
    <g filter="url(#owlshadow)"><g transform="translate(512,540) scale(6.6) translate(-44,-53)"><g><g><path fill-rule="evenodd" clip-rule="evenodd" fill="url(#owl3)" d="M55.835,84.216c9.414-7.483,15.992-17.259,19.976-30.173     c4.586-14.845,4.827-33.432,2.714-51.957c-2.714,2.776-5.671,7.301-8.508,10.802c-13.94,0-30.535,0-43.509,0     c-1.026-0.664-1.629-1.931-2.293-2.897C22.345,7.156,20.172,4.017,18.18,1C18.121,1,18.06,1,18,1c0,32.646,0,65.354,0,98     C22.042,98.397,43.042,93.206,55.835,84.216 M70.378,41.371C69.534,44.991,67.407,50,62.534,50C61,50,58,50,58,50s-5,0-5.483,0     c-2.08,0-4.517-5-5.009-5.311C47,45,45,49.879,42.982,50c0,0-10.982,0-12.07,0c-4.484,0-7.3-8.569-6.697-15.086     c0.965-10.319,10.742-13.578,20.819-14.361c12.25-0.846,25.646,3.197,26.009,15.628C71.102,38.293,70.681,40.104,70.378,41.371z"></path><path fill-rule="evenodd" clip-rule="evenodd" fill="url(#owl3)" d="M57.646,29.604c-3.621,0-6.578,2.957-6.578,6.577     c0,3.621,2.957,6.517,6.578,6.517c3.561,0,6.518-2.896,6.518-6.517C64.163,32.56,61.206,29.604,57.646,29.604z"></path><path fill-rule="evenodd" clip-rule="evenodd" fill="url(#owl3)" d="M36.524,29.604c-3.62,0-6.577,2.957-6.577,6.577     c0,3.621,2.957,6.517,6.577,6.517c3.621,0,6.517-2.896,6.517-6.517C43.042,32.56,40.146,29.604,36.524,29.604z"></path></g></g></g></g>
  </g>
</g>
</svg>